<?xml version="1.0" standalone="no"?>
<!DOCTYPE svg PUBLIC "-//W3C//DTD SVG 20010904//EN"
 "http://www.w3.org/TR/2001/REC-SVG-20010904/DTD/svg10.dtd">
<svg version="1.0" xmlns="http://www.w3.org/2000/svg"
 width="666.000000pt" height="376.000000pt" viewBox="0 0 666.000000 376.000000"
 preserveAspectRatio="xMidYMid meet">

<g transform="translate(0.000000,376.000000) scale(0.100000,-0.100000)"
fill="#000000" stroke="none">
<path d="M4140 2709 c-245 -27 -524 -219 -685 -474 -129 -204 -157 -418 -76
-590 37 -78 90 -131 171 -168 60 -27 74 -29 170 -29 90 1 117 5 188 31 103 37
196 88 270 150 87 72 86 72 79 19 -8 -61 7 -112 45 -143 27 -23 39 -26 78 -23
60 6 110 31 169 84 46 42 52 44 110 44 104 0 164 47 313 245 50 66 97 121 104
123 7 2 31 -2 53 -8 65 -17 56 -49 -51 -193 -80 -108 -101 -152 -102 -210 -1
-40 3 -52 24 -69 40 -32 107 -21 182 31 33 23 62 40 64 38 2 -2 -65 -107 -150
-233 -85 -126 -211 -313 -281 -417 -69 -103 -123 -192 -120 -197 11 -19 65
-11 87 13 12 12 138 200 281 417 l259 394 24 -29 c22 -28 29 -30 87 -30 52 0
76 6 128 33 122 62 221 158 281 272 17 33 23 61 23 106 0 83 -18 104 -91 104
-46 0 -61 -6 -119 -45 -43 -28 -65 -38 -60 -28 3 10 40 68 82 129 41 62 72
117 68 123 -11 19 -61 12 -82 -11 -11 -13 -78 -108 -148 -213 -70 -104 -159
-228 -198 -274 -66 -79 -165 -163 -207 -176 -32 -10 -60 12 -60 48 0 36 17 66
102 184 128 178 126 230 -10 252 -29 4 -55 11 -58 14 -4 3 5 25 19 49 37 65
42 88 19 88 -25 0 -48 -36 -64 -97 -13 -50 -58 -122 -166 -261 -80 -103 -137
-144 -209 -150 -32 -3 -53 0 -53 6 0 5 18 36 39 68 48 73 85 177 77 218 -11
54 -42 76 -107 76 -34 0 -75 -8 -101 -19 -69 -29 -159 -104 -213 -176 -107
-143 -305 -280 -466 -321 -74 -19 -186 -22 -245 -5 -242 67 -259 422 -36 766
188 291 451 470 664 452 79 -7 121 -28 151 -77 33 -53 30 -173 -6 -258 -35
-86 -103 -178 -183 -250 -86 -78 -156 -112 -227 -112 -49 0 -58 3 -81 31 -35
41 -41 72 -28 130 15 63 52 121 119 186 29 29 53 55 53 58 0 32 -133 -105
-165 -170 -86 -176 8 -295 189 -240 74 23 133 61 214 139 112 108 172 233 172
358 0 165 -106 240 -310 217z m548 -735 c36 -25 30 -87 -19 -182 -74 -144
-187 -271 -257 -289 -40 -10 -76 16 -80 56 -10 105 148 354 260 410 51 25 66
26 96 5z m1106 -10 c22 -58 -25 -166 -119 -277 -101 -119 -198 -187 -265 -187
-44 0 -56 19 -46 75 15 76 234 337 323 384 47 25 98 27 107 5z"/>
<path d="M1367 2686 c-98 -40 -162 -92 -205 -165 -23 -40 -27 -57 -27 -127 0
-77 2 -84 33 -122 17 -23 32 -43 32 -45 0 -2 -43 -7 -95 -10 -162 -11 -266
-47 -372 -129 -122 -94 -188 -268 -150 -399 46 -157 169 -241 349 -238 l73 2
-78 8 c-102 11 -176 44 -215 98 -121 167 6 481 243 598 37 19 97 35 168 46 30
5 147 -7 215 -21 55 -12 87 -5 71 14 -7 9 -32 14 -65 14 -99 0 -134 36 -134
140 0 77 47 186 111 255 46 49 77 69 143 90 l41 13 -40 1 c-22 0 -66 -10 -98
-23z"/>
<path d="M1554 2694 c53 -19 74 -40 82 -79 7 -37 -8 -71 -43 -98 -30 -24 -29
-37 3 -37 40 0 94 59 94 104 0 46 -45 98 -98 114 -55 17 -85 14 -38 -4z"/>
<path d="M2148 2683 c-34 -38 -634 -942 -665 -1001 -42 -82 -45 -141 -7 -179
22 -22 32 -25 70 -20 49 5 120 48 193 116 24 23 45 41 47 41 3 0 1 -18 -2 -40
-7 -45 9 -96 37 -110 50 -27 120 1 227 90 39 33 72 60 74 60 2 0 1 -25 0 -55
-3 -48 -1 -57 23 -81 23 -23 32 -26 72 -21 54 6 158 73 228 148 26 28 49 48
52 45 3 -3 6 -24 7 -48 3 -57 23 -97 66 -126 89 -61 256 11 413 177 37 39 67
77 67 84 0 6 -33 -22 -73 -63 -96 -100 -152 -144 -221 -175 -77 -34 -128 -33
-156 3 -18 23 -21 35 -15 76 11 84 53 146 98 146 34 0 189 75 230 111 52 45
65 80 42 115 -13 21 -23 24 -73 24 -107 0 -215 -72 -336 -223 -102 -128 -221
-240 -280 -262 -59 -23 -80 -13 -84 38 -3 32 10 57 96 189 164 254 149 237
210 238 28 0 52 5 52 10 0 6 -18 10 -40 10 -22 0 -40 4 -40 9 0 9 53 90 123
188 33 47 29 63 -14 63 -37 0 -47 -11 -139 -148 l-75 -112 -42 0 c-24 0 -43
-4 -43 -10 0 -5 14 -10 30 -10 39 0 38 -14 -8 -75 -20 -28 -53 -75 -73 -105
-82 -126 -276 -300 -333 -300 -49 0 -59 45 -25 113 12 23 73 117 135 208 62
91 111 169 107 173 -3 3 -23 6 -44 6 -36 0 -39 -3 -110 -107 -96 -144 -129
-184 -220 -274 -97 -94 -156 -128 -193 -111 -34 15 -35 60 -2 116 13 23 178
270 365 550 187 280 338 513 335 518 -9 15 -70 9 -86 -9z m772 -708 c31 -37
-35 -120 -135 -169 -62 -30 -125 -45 -125 -29 0 16 54 84 106 135 75 72 128
94 154 63z"/>
<path d="M2165 2226 c-32 -49 8 -90 62 -64 23 11 28 20 28 48 0 33 -2 35 -37
38 -30 3 -40 -1 -53 -22z"/>
<path d="M1111 2008 c-71 -20 -171 -108 -206 -182 -9 -19 -15 -41 -13 -47 2
-7 16 13 32 44 39 81 152 177 208 177 10 0 18 5 18 10 0 6 -1 10 -2 9 -2 0
-18 -5 -37 -11z"/>
<path d="M1272 2003 c35 -6 85 -63 94 -109 10 -55 -3 -132 -32 -192 -33 -67
-118 -152 -187 -187 l-52 -27 39 7 c78 13 205 125 252 221 21 42 28 72 28 110
-2 99 -69 186 -140 183 l-29 -2 27 -4z"/>
<path d="M1053 1473 c9 -2 23 -2 30 0 6 3 -1 5 -18 5 -16 0 -22 -2 -12 -5z"/>
</g>
</svg>
